<svg width="118" height="17" viewBox="0 0 118 17" fill="none" xmlns="http://www.w3.org/2000/svg">
<path d="M6.16352 13.7728C7.6592 13.7728 8.74398 13.3128 9.41786 12.393C10.0917 11.4568 10.4287 10.0606 10.4287 8.20452C10.4287 7.2847 10.3465 6.49628 10.1821 5.83926C10.0178 5.18224 9.74658 4.64841 9.36855 4.23777C9.00696 3.81071 8.53853 3.50684 7.96327 3.32616C7.38801 3.12905 6.68948 3.0305 5.86767 3.0305H3.3283V13.7728H6.16352ZM0 16.5569V0.197106H6.3361C7.43732 0.197106 8.45635 0.385999 9.39321 0.763785C10.3301 1.12515 11.1272 1.65076 11.7847 2.34063C12.4585 3.0305 12.9845 3.8682 13.3625 4.85373C13.7405 5.83926 13.9296 6.95619 13.9296 8.20452C13.9296 9.45286 13.757 10.5944 13.4118 11.6292C13.0831 12.6476 12.6065 13.5264 11.9819 14.2655C11.3573 14.9882 10.6095 15.5549 9.73836 15.9656C8.86725 16.3598 7.90574 16.5569 6.85384 16.5569H0Z" fill="white"/>
<path d="M22.2025 8.10597C22.1204 7.54751 21.9067 7.14508 21.5615 6.8987C21.2328 6.63589 20.7233 6.50449 20.033 6.50449C19.3755 6.50449 18.8742 6.58662 18.5291 6.75087C18.2004 6.8987 18.036 7.16151 18.036 7.53929C18.036 7.8678 18.2004 8.13061 18.5291 8.32772C18.8742 8.52482 19.3673 8.71371 20.0083 8.89439C21.0602 9.19005 21.9478 9.44465 22.671 9.65818C23.3942 9.85529 23.9694 10.0935 24.3968 10.3727C24.8405 10.6519 25.1528 11.0051 25.3336 11.4321C25.5308 11.8428 25.6295 12.4012 25.6295 13.1075C25.6295 14.1916 25.1775 15.095 24.2735 15.8177C23.3695 16.524 22.03 16.8772 20.2549 16.8772C19.3838 16.8772 18.5948 16.7786 17.8881 16.5815C17.1813 16.3844 16.5732 16.1052 16.0637 15.7438C15.5706 15.366 15.1843 14.9225 14.9049 14.4134C14.642 13.8877 14.5023 13.3046 14.4858 12.664H17.7895C17.7895 13.2389 18.0113 13.6824 18.4551 13.9945C18.9153 14.3066 19.507 14.4626 20.2302 14.4626C20.8384 14.4626 21.3561 14.3723 21.7834 14.1916C22.2272 13.9945 22.4491 13.6988 22.4491 13.3046C22.4491 12.8611 22.2847 12.5409 21.956 12.3437C21.6437 12.1466 21.1589 11.9742 20.5014 11.8263C19.318 11.5635 18.3647 11.2925 17.6415 11.0133C16.9184 10.7176 16.3513 10.3973 15.9404 10.0524C15.5459 9.70746 15.2747 9.32967 15.1268 8.91903C14.9953 8.5084 14.9296 8.04848 14.9296 7.53929C14.9296 7.07938 15.02 6.6441 15.2008 6.23347C15.398 5.82283 15.7021 5.46147 16.113 5.14939C16.5239 4.8373 17.0581 4.59092 17.7155 4.41024C18.3729 4.21314 19.1783 4.11458 20.1316 4.11458C21.8738 4.11458 23.1476 4.46773 23.953 5.17403C24.7584 5.88032 25.2021 6.85764 25.2843 8.10597H22.2025Z" fill="white"/>
<path d="M37.3351 12.1713C37.253 12.8776 37.0475 13.5182 36.7188 14.0931C36.4065 14.6679 36.0038 15.1607 35.5107 15.5714C35.0177 15.982 34.4506 16.3023 33.8096 16.5322C33.185 16.7622 32.5029 16.8772 31.7633 16.8772C30.9415 16.8772 30.1855 16.7458 29.4951 16.483C28.8213 16.2037 28.2378 15.7931 27.7447 15.2511C27.2516 14.6926 26.8654 14.0109 26.586 13.2061C26.323 12.3848 26.1915 11.4321 26.1915 10.348C26.1915 9.26397 26.323 8.32772 26.586 7.53929C26.8654 6.75087 27.2516 6.11028 27.7447 5.61751C28.2378 5.10832 28.8295 4.73054 29.5198 4.48416C30.2265 4.23777 31.0073 4.11458 31.8619 4.11458C32.6509 4.11458 33.3658 4.22135 34.0068 4.43488C34.6643 4.64841 35.2313 4.96049 35.708 5.37113C36.2011 5.78177 36.5873 6.27453 36.8667 6.84942C37.1461 7.42431 37.3105 8.06491 37.3598 8.7712H34.1301C34.0479 8.14704 33.7932 7.66248 33.3658 7.31755C32.9549 6.95619 32.4454 6.77551 31.8373 6.77551C31.4921 6.77551 31.1716 6.833 30.8758 6.94798C30.5799 7.06295 30.3169 7.26006 30.0868 7.53929C29.8732 7.8021 29.7006 8.16346 29.5691 8.62337C29.4376 9.06686 29.3719 9.61712 29.3719 10.2741C29.3719 11.6046 29.6102 12.5901 30.0868 13.2307C30.5635 13.8713 31.1141 14.1916 31.7387 14.1916C32.3632 14.1916 32.8974 14.0191 33.3412 13.6742C33.785 13.3293 34.0397 12.8283 34.1055 12.1713H37.3351Z" fill="white"/>
<path d="M38.1385 16.5569V4.43488H41.1463V5.88853C41.4093 5.4779 41.6805 5.1576 41.9599 4.92764C42.2558 4.69769 42.5516 4.52522 42.8474 4.41024C43.1597 4.27884 43.472 4.19671 43.7843 4.16386C44.0966 4.13101 44.4171 4.11458 44.7458 4.11458H45.1649V7.39146C44.8691 7.34219 44.5732 7.31755 44.2774 7.31755C42.3215 7.31755 41.3436 8.29486 41.3436 10.2495V16.5569H38.1385Z" fill="white"/>
<path d="M45.9891 16.5569V4.43488H49.1941V16.5569H45.9891ZM45.9891 2.98122V0H49.1941V2.98122H45.9891Z" fill="white"/>
<path d="M56.3063 14.2655C57.1116 14.2655 57.7691 13.9288 58.2786 13.2554C58.7881 12.5655 59.0429 11.6785 59.0429 10.5944C59.0429 8.09776 58.1225 6.84942 56.2816 6.84942C54.4901 6.84942 53.5943 8.16346 53.5943 10.7915C53.5943 11.8263 53.8491 12.664 54.3586 13.3046C54.8845 13.9452 55.5338 14.2655 56.3063 14.2655ZM50.5619 16.5569V0H53.7176V6.01172C54.6216 4.74696 55.8214 4.11458 57.3171 4.11458C58.106 4.11458 58.8046 4.27062 59.4127 4.58271C60.0373 4.87837 60.5632 5.30543 60.9905 5.86389C61.4179 6.42236 61.7384 7.08759 61.9521 7.85959C62.1822 8.61516 62.2972 9.45286 62.2972 10.3727C62.2972 11.3911 62.1657 12.3027 61.9027 13.1075C61.6398 13.9124 61.2782 14.594 60.818 15.1525C60.3578 15.711 59.7989 16.138 59.1415 16.4337C58.5005 16.7293 57.802 16.8772 57.0459 16.8772C55.5338 16.8772 54.4079 16.2776 53.6683 15.0786L53.6436 16.5569H50.5619Z" fill="white"/>
<path d="M71.3343 9.31325C71.3178 8.86976 71.2357 8.48376 71.0877 8.15525C70.9563 7.81031 70.7755 7.53108 70.5453 7.31755C70.3152 7.08759 70.0523 6.92334 69.7564 6.82479C69.4606 6.70981 69.1565 6.65232 68.8442 6.65232C68.2032 6.65232 67.6444 6.89049 67.1677 7.36683C66.7075 7.82674 66.4445 8.47555 66.3788 9.31325H71.3343ZM66.2802 11.3336C66.3295 12.2534 66.5925 12.9843 67.0691 13.5264C67.5622 14.0684 68.2032 14.3394 68.9921 14.3394C69.5181 14.3394 69.9783 14.2245 70.3728 13.9945C70.7837 13.7481 71.0467 13.4114 71.1617 12.9843H74.4653C74.0873 14.2327 73.4299 15.1936 72.493 15.867C71.5562 16.5405 70.4385 16.8772 69.1401 16.8772C65.0968 16.8772 63.0752 14.6762 63.0752 10.2741C63.0752 9.33788 63.2067 8.49197 63.4696 7.7364C63.7326 6.98083 64.1106 6.33202 64.6037 5.78998C65.1132 5.24794 65.7296 4.8373 66.4528 4.55807C67.176 4.26241 68.006 4.11458 68.9428 4.11458C70.8165 4.11458 72.23 4.71411 73.1833 5.91317C74.1531 7.11223 74.6379 8.91903 74.6379 11.3336H66.2802Z" fill="white"/>
<path d="M75.5513 16.5569V13.2307H78.9782V16.5569H75.5513Z" fill="white"/>
<path d="M87.2005 15.9774C87.2005 15.432 87.3198 14.8753 87.5586 14.3072C87.8087 13.7391 88.1214 13.154 88.4966 12.5518C88.8717 11.9496 89.281 11.3417 89.7244 10.7282C90.1679 10.1033 90.5885 9.46698 90.9864 8.81934C91.1001 8.63755 91.1911 8.46712 91.2593 8.30805C91.3275 8.13762 91.3616 7.96719 91.3616 7.79676C91.3616 7.61497 91.3105 7.46726 91.2081 7.35364C91.1058 7.22866 90.958 7.16617 90.7647 7.16617C90.2986 7.16617 89.8495 7.26843 89.4175 7.47294C88.9854 7.6661 88.5705 7.92742 88.1725 8.25692C87.7746 8.57506 87.3937 8.94432 87.0299 9.36472C86.6775 9.78511 86.3421 10.2226 86.0237 10.677C85.7168 11.1202 85.4268 11.5633 85.154 12.0064C84.8811 12.4495 84.631 12.8529 84.4036 13.2164C84.1989 13.5914 84.0114 14.0004 83.8408 14.4435C83.6703 14.8867 83.4827 15.2957 83.278 15.6706C83.0848 16.0456 82.8631 16.358 82.6129 16.608C82.3628 16.8693 82.0501 17 81.675 17C81.2657 17 80.9416 16.8693 80.7029 16.608C80.4641 16.3467 80.3447 16.0342 80.3447 15.6706C80.3447 15.4661 80.4186 15.148 80.5664 14.7162C80.7142 14.2845 80.9018 13.7845 81.1292 13.2164C81.368 12.637 81.6352 12.0234 81.9308 11.3758C82.2264 10.7282 82.5163 10.0862 82.8005 9.44993C83.0961 8.81366 83.369 8.21715 83.6191 7.66042C83.8806 7.09231 84.0966 6.60943 84.2672 6.21176C84.4718 5.72319 84.739 5.35961 85.0687 5.121C85.4098 4.8824 85.7452 4.7631 86.0749 4.7631C86.3591 4.7631 86.6092 4.87104 86.8253 5.08692C87.0527 5.29143 87.1663 5.59253 87.1663 5.9902C87.1663 6.28561 87.0981 6.60943 86.9617 6.96165C87.2687 6.6776 87.5984 6.37083 87.9508 6.04133C88.3033 5.71183 88.6842 5.41074 89.0935 5.13805C89.5141 4.854 89.9803 4.62107 90.4919 4.43928C91.0035 4.25749 91.5777 4.16659 92.2143 4.16659C92.5327 4.16659 92.834 4.20636 93.1182 4.28589C93.4024 4.36543 93.6526 4.49041 93.8686 4.66084C94.096 4.83127 94.2779 5.05283 94.4143 5.32552C94.5621 5.59821 94.6474 5.92771 94.6701 6.31402C94.9316 6.05269 95.2158 5.79704 95.5228 5.54708C95.8298 5.28575 96.1595 5.05283 96.5119 4.84832C96.8758 4.6438 97.268 4.47905 97.6887 4.35407C98.1093 4.22908 98.5755 4.16659 99.0871 4.16659C99.4623 4.16659 99.8204 4.20636 100.162 4.28589C100.503 4.36543 100.804 4.50177 101.065 4.69493C101.338 4.87672 101.549 5.11532 101.696 5.41074C101.856 5.70615 101.935 6.06973 101.935 6.50149C101.935 7.18321 101.776 7.83085 101.458 8.4444C101.151 9.05794 100.787 9.62036 100.366 10.1317C100.23 10.3021 100.048 10.518 99.8204 10.7793C99.593 11.0406 99.3713 11.319 99.1553 11.6144C98.9393 11.9098 98.7517 12.2166 98.5925 12.5347C98.4334 12.8415 98.3538 13.1312 98.3538 13.4039C98.3538 13.6539 98.4277 13.813 98.5755 13.8811C98.7346 13.9493 98.9393 13.9834 99.1894 13.9834C99.6669 13.9834 100.184 13.8414 100.741 13.5573C101.298 13.2733 101.838 12.9324 102.361 12.5347C102.896 12.1257 103.39 11.7053 103.845 11.2735C104.311 10.8304 104.681 10.4612 104.954 10.1657C105.022 10.0862 105.101 10.0294 105.192 9.99531C105.283 9.96123 105.374 9.94418 105.465 9.94418C105.67 9.94418 105.852 10.0351 106.011 10.2169C106.182 10.3987 106.267 10.6373 106.267 10.9327C106.267 11.1599 106.199 11.4099 106.062 11.6826C105.926 11.9553 105.693 12.2223 105.363 12.4836C104.749 13.0744 104.118 13.6425 103.47 14.1879C102.833 14.7219 102.185 15.1991 101.526 15.6195C100.878 16.0285 100.224 16.358 99.5646 16.608C98.9166 16.858 98.2685 16.983 97.6205 16.983C96.7791 16.983 96.097 16.7841 95.574 16.3864C95.0624 15.9888 94.8065 15.3582 94.8065 14.4947C94.8065 13.9266 94.9146 13.3926 95.1306 12.8926C95.3466 12.3927 95.6138 11.9155 95.9321 11.461C96.2505 10.9952 96.5858 10.5464 96.9383 10.1146C97.2907 9.68286 97.5977 9.2511 97.8592 8.81934C97.9729 8.63755 98.0639 8.46712 98.1321 8.30805C98.2003 8.13762 98.2344 7.96719 98.2344 7.79676C98.2344 7.61497 98.1832 7.46726 98.0809 7.35364C97.9786 7.22866 97.8308 7.16617 97.6375 7.16617C97.1714 7.16617 96.7223 7.26843 96.2902 7.47294C95.8582 7.6661 95.4432 7.92742 95.0453 8.25692C94.6474 8.57506 94.2665 8.94432 93.9027 9.36472C93.5502 9.78511 93.2148 10.2226 92.8965 10.677C92.5895 11.1202 92.2996 11.5633 92.0267 12.0064C91.7539 12.4495 91.5038 12.8529 91.2764 13.2164C91.0717 13.5914 90.8841 14.0004 90.7136 14.4435C90.543 14.8867 90.3554 15.2957 90.1508 15.6706C89.9575 16.0456 89.7358 16.358 89.4857 16.608C89.2356 16.8693 88.9229 17 88.5477 17C88.4113 17 88.2635 16.9716 88.1043 16.9148C87.9451 16.8693 87.7973 16.8012 87.6609 16.7103C87.5359 16.6194 87.4278 16.5114 87.3369 16.3864C87.2573 16.2615 87.2118 16.1251 87.2005 15.9774Z" fill="white"/>
<path d="M111.213 6.50149C111.156 6.49013 111.104 6.48445 111.059 6.48445C111.014 6.48445 110.962 6.48445 110.906 6.48445C110.473 6.48445 110.07 6.56966 109.695 6.74009C109.32 6.91052 108.973 7.13776 108.654 7.42181C108.347 7.6945 108.069 8.00696 107.819 8.35918C107.58 8.7114 107.364 9.06363 107.171 9.41585C106.977 9.75671 106.813 10.0862 106.676 10.4043C106.551 10.7225 106.454 10.9895 106.386 11.2054C106.784 11.0009 107.193 10.7679 107.614 10.5066C108.046 10.2453 108.45 9.99531 108.825 9.75671C109.2 9.51811 109.524 9.30223 109.797 9.10907C110.081 8.91592 110.28 8.78526 110.394 8.71708C110.906 8.39895 111.258 8.10353 111.451 7.83085C111.645 7.5468 111.741 7.30251 111.741 7.098C111.741 6.92757 111.684 6.79122 111.571 6.68896C111.468 6.5867 111.349 6.52421 111.213 6.50149ZM111.826 4.14955C112.77 4.14955 113.475 4.37679 113.941 4.83127C114.407 5.28575 114.64 5.91635 114.64 6.72305C114.64 7.20025 114.515 7.70018 114.265 8.22284C114.015 8.74549 113.583 9.2795 112.969 9.82488C112.355 10.3589 111.531 10.91 110.496 11.4781C109.473 12.0348 108.188 12.5972 106.642 13.1653C106.699 13.4948 106.875 13.7561 107.171 13.9493C107.466 14.1311 107.859 14.222 108.347 14.222C108.87 14.222 109.428 14.1481 110.019 14.0004C110.621 13.8414 111.213 13.6425 111.792 13.4039C112.384 13.1653 112.958 12.9097 113.515 12.637C114.072 12.3529 114.572 12.0859 115.016 11.836C115.47 11.586 115.846 11.3701 116.141 11.1883C116.448 11.0065 116.653 10.8929 116.755 10.8475C116.857 10.7793 116.948 10.7395 117.028 10.7282C117.119 10.7168 117.198 10.7111 117.267 10.7111C117.403 10.7111 117.517 10.7452 117.608 10.8134C117.699 10.8702 117.773 10.944 117.829 11.0349C117.898 11.1145 117.943 11.2054 117.966 11.3076C117.989 11.3985 118 11.4781 118 11.5462C118 11.6485 117.989 11.7735 117.966 11.9212C117.943 12.0575 117.858 12.2166 117.71 12.3984C117.653 12.4552 117.46 12.6086 117.13 12.8585C116.812 13.1085 116.397 13.4039 115.885 13.7448C115.374 14.0856 114.777 14.4492 114.095 14.8355C113.424 15.2105 112.708 15.557 111.946 15.8752C111.195 16.1933 110.411 16.4546 109.592 16.6591C108.774 16.875 107.967 16.983 107.171 16.983C106.489 16.983 105.88 16.8523 105.346 16.591C104.823 16.3296 104.374 15.9774 103.999 15.5343C103.635 15.0912 103.356 14.5799 103.163 14.0004C102.97 13.421 102.873 12.8131 102.873 12.1768C102.873 11.6883 102.97 11.1542 103.163 10.5748C103.356 9.98395 103.635 9.39312 103.999 8.8023C104.362 8.21147 104.806 7.63769 105.329 7.08095C105.863 6.51285 106.46 6.01292 107.12 5.58117C107.779 5.14941 108.501 4.80287 109.285 4.54154C110.081 4.28021 110.928 4.14955 111.826 4.14955Z" fill="white"/>
</svg>
